# xmcd CD database file
#
# Track frame offsets:
#	150
#	9941
#	20700
#	36381
#	47902
#	57476
#	69081
#	89917
#	100784
#	109772
#	119741
#	130968
#	142130
#	151576
#	168567
#
# Disc length: 2395 seconds
#
# Revision: 0
# Processed by: cddbd v1.4PL0 Copyright (c) Steve Scherf et al.
# Submitted via: CDex 1.50
#
DISCID=d609590f
DTITLE=Diversos - Patati Patatá Vol. 5
DYEAR=2003
DGENRE=New Age
TTITLE0=Mundo Encantado
TTITLE1=Porquê Porquê
TTITLE2=A Casa - O Pato
TTITLE3=Nosso Avião
TTITLE4=Dias da Semana
TTITLE5=Chulé
TTITLE6=Pout-Pourri 1
TTITLE7=Mundo Animal
TTITLE8=Um Amigo Especial
TTITLE9=Brinque
TTITLE10=Sorria
TTITLE11=O Bom Menino - Muito Bem
TTITLE12=Hora da Folia
TTITLE13=Pout-Pourri 2
TTITLE14=O Patinho
EXTD=YEAR: 2003
EXTT0=
EXTT1=
EXTT2=
EXTT3=
EXTT4=
EXTT5=
EXTT6=
EXTT7=
EXTT8=
EXTT9=
EXTT10=
EXTT11=
EXTT12=
EXTT13=
EXTT14=
PLAYORDER=
